<?xml version="1.0" standalone="no"?>
<!DOCTYPE svg PUBLIC "-//W3C//DTD SVG 20010904//EN"
 "http://www.w3.org/TR/2001/REC-SVG-20010904/DTD/svg10.dtd">
<svg version="1.0" xmlns="http://www.w3.org/2000/svg"
 width="96.000000pt" height="96.000000pt" viewBox="0 0 96.000000 96.000000"
 preserveAspectRatio="xMidYMid meet">
<metadata>
Created by potrace 1.16, written by Peter Selinger 2001-2019
</metadata>
<g transform="translate(0.000000,96.000000) scale(0.100000,-0.100000)"
fill="#000000" stroke="none">
<path d="M370 534 l0 -130 35 -34 35 -34 0 32 c0 18 -3 32 -8 32 -22 0 -33 45
-26 107 l7 65 58 -58 c54 -53 59 -56 59 -33 0 17 -23 47 -80 104 l-80 80 0
-131z"/>
<path d="M520 597 c0 -15 9 -36 20 -47 16 -16 20 -33 20 -90 0 -38 -3 -70 -7
-70 -4 0 -33 26 -65 57 -53 53 -58 55 -58 32 0 -17 23 -47 80 -104 l80 -80 0
131 0 130 -35 34 -35 34 0 -27z"/>
</g>
</svg>
